<?xml version="1.0" encoding="utf-8"?>
<!-- Uploaded to: SVG Repo, www.svgrepo.com, Generator: SVG Repo Mixer Tools -->
<svg fill="#000000" width="800px" height="800px" viewBox="0 0 32 32" version="1.1" xmlns="http://www.w3.org/2000/svg">
<title>adobedreamweaver</title>
<path d="M25.91 21.836c-0.012 0.054-0.039 0.1-0.075 0.136v0c0 0.064-0.050 0.087-0.114 0.076h-2.336c-0.008 0.001-0.017 0.002-0.027 0.002-0.048 0-0.092-0.020-0.123-0.052l-0-0c-0.034-0.042-0.059-0.092-0.074-0.147l-0.001-0.003c-0.237-1-0.439-1.899-0.6-2.662-0.162-0.775-0.3-1.425-0.4-1.961-0.1-0.539-0.187-0.988-0.261-1.362-0.064-0.375-0.126-0.687-0.164-0.95h-0.012c-0.125 0.55-0.236 1.087-0.35 1.6-0.099 0.512-0.225 1.037-0.35 1.562s-0.261 1.1-0.425 1.724c-0.149 0.625-0.325 1.312-0.512 2.049-0.025 0.137-0.086 0.2-0.2 0.2h-2.337c-0.010 0.001-0.021 0.002-0.032 0.002-0.053 0-0.102-0.014-0.145-0.039l0.001 0.001c-0.034-0.040-0.063-0.085-0.086-0.134l-0.001-0.004-2.436-9.662c-0.037-0.112 0.012-0.162 0.15-0.162h2.362c0.112 0 0.176 0.037 0.187 0.125 0.249 1.1 0.461 2.049 0.625 2.849 0.162 0.8 0.3 1.475 0.387 2.036 0.087 0.562 0.175 1.025 0.237 1.376 0.063 0.35 0.112 0.651 0.149 0.875h0.039c0.025-0.2 0.049-0.389 0.086-0.589q0.075-0.354 0.186-0.937c0.076-0.387 0.164-0.837 0.276-1.362s0.236-1.125 0.389-1.824c0.136-0.687 0.337-1.475 0.574-2.362 0.006-0.060 0.024-0.116 0.052-0.164l-0.001 0.002c0.012-0.025 0.061-0.037 0.136-0.037h2.449c0.075 0 0.112 0.050 0.126 0.137 0.212 0.912 0.387 1.712 0.537 2.399 0.136 0.687 0.262 1.3 0.375 1.837 0.1 0.525 0.186 0.987 0.237 1.362 0.049 0.389 0.112 0.701 0.161 0.962 0.039 0.181 0.070 0.399 0.086 0.622l0.001 0.017h0.037c0.062-0.25 0.112-0.55 0.162-0.887 0.050-0.339 0.112-0.712 0.2-1.137 0.076-0.425 0.162-0.887 0.262-1.4 0.086-0.512 0.212-1.075 0.35-1.712 0.136-0.625 0.287-1.312 0.461-2.049 0.026-0.112 0.076-0.162 0.164-0.162h2.187c0.112 0 0.149 0.062 0.125 0.175zM14.138 17.787c-0.255 0.74-0.62 1.38-1.083 1.936l0.008-0.010c-0.438 0.519-0.945 0.962-1.51 1.32l-0.027 0.016c-0.529 0.33-1.139 0.599-1.789 0.776l-0.048 0.011c-0.577 0.157-1.24 0.248-1.923 0.25h-1.413c-0.5 0-0.975 0-1.4-0.014-0.437-0.012-0.762-0.012-0.975-0.025-0.087 0-0.125-0.076-0.125-0.2v-12.795c-0-0.004-0.001-0.009-0.001-0.014 0-0.074 0.054-0.136 0.125-0.148l0.001-0h0.013c0.187-0.012 0.475-0.025 0.837-0.025 0.375-0.012 0.8-0.012 1.3-0.025s1.025-0.012 1.587-0.012c0.086-0.003 0.186-0.005 0.287-0.005 1.28 0 2.489 0.307 3.556 0.851l-0.044-0.021c0.967 0.522 1.74 1.295 2.247 2.233l0.014 0.029c0.474 0.923 0.751 2.015 0.751 3.171 0 0.049-0.001 0.099-0.002 0.148l0-0.007c0.001 0.042 0.001 0.092 0.001 0.142 0 0.865-0.142 1.698-0.405 2.474l0.016-0.054zM25.685 1.379h-19.369c-0.001 0-0.003 0-0.004 0-2.931 0-5.307 2.376-5.307 5.307 0 0.002 0 0.003 0 0.005v-0 18.62c0 0.001 0 0.003 0 0.004 0 2.931 2.376 5.307 5.307 5.307 0.002 0 0.003 0 0.005 0h19.369c0.001 0 0.003 0 0.004 0 2.931 0 5.307-2.376 5.307-5.307 0-0.002 0-0.003 0-0.005v0-18.62c0-0.001 0-0.003 0-0.004 0-2.931-2.376-5.307-5.307-5.307-0.002 0-0.003 0-0.005 0h0zM9.364 11.501c-0.468-0.151-1.007-0.238-1.566-0.238-0.029 0-0.058 0-0.088 0.001l0.004-0c-0.25 0-0.462 0-0.637 0.012-0.175 0-0.375 0.012-0.587 0.025v8.335c0.137 0 0.262 0 0.387 0.012 0.112 0.012 0.237 0.012 0.35 0.025 0.101 0.009 0.217 0.015 0.336 0.015 0.027 0 0.054-0 0.081-0.001l-0.004 0c0.025 0 0.053 0.001 0.082 0.001 0.58 0 1.136-0.105 1.65-0.298l-0.032 0.011c0.516-0.187 0.956-0.478 1.311-0.85l0.001-0.001c0.363-0.385 0.649-0.848 0.829-1.36l0.008-0.027c0.19-0.556 0.3-1.197 0.3-1.864 0-0.004 0-0.008 0-0.011v0.001c0.001-0.028 0.001-0.061 0.001-0.095 0-0.598-0.106-1.171-0.299-1.702l0.011 0.034c-0.356-0.976-1.137-1.721-2.114-2.020l-0.023-0.006z"></path>
</svg>