<?xml version="1.0" encoding="utf-8"?>
<!-- Uploaded to: SVG Repo, www.svgrepo.com, Generator: SVG Repo Mixer Tools -->
<svg fill="#000000" width="800px" height="800px" viewBox="0 0 32 32" version="1.1" xmlns="http://www.w3.org/2000/svg">
<title>adobeaudition</title>
<path d="M11.414 14.413c-0.125-0.387-0.237-0.762-0.362-1.15s-0.237-0.75-0.337-1.112c-0.1-0.35-0.187-0.675-0.275-0.975h-0.025c-0.135 0.652-0.281 1.192-0.456 1.72l0.031-0.108c-0.187 0.6-0.375 1.225-0.575 1.849-0.162 0.637-0.362 1.225-0.55 1.749h3.174c-0.075-0.262-0.175-0.575-0.287-0.9-0.113-0.337-0.225-0.7-0.337-1.075zM26.309 22.012h-2.151c-0.006 0.001-0.014 0.001-0.021 0.001-0.095 0-0.177-0.056-0.214-0.137l-0.001-0.001c-0.025-0.1-0.050-0.214-0.076-0.312-0.017-0.066-0.026-0.141-0.026-0.219 0-0.015 0-0.030 0.001-0.046l-0 0.002c-0.391 0.351-0.864 0.617-1.387 0.767l-0.025 0.006c-0.414 0.119-0.889 0.187-1.379 0.187-0.003 0-0.005 0-0.008 0h0c-0.013 0-0.027 0-0.042 0-0.472 0-0.926-0.078-1.349-0.221l0.030 0.009c-0.42-0.146-0.776-0.382-1.061-0.686l-0.001-0.001c-0.312-0.335-0.553-0.74-0.695-1.19l-0.006-0.022c-0.158-0.499-0.25-1.073-0.25-1.668 0-0.037 0-0.074 0.001-0.112l-0 0.006v-6.198c-0.001-0.007-0.002-0.015-0.002-0.023 0-0.073 0.055-0.133 0.126-0.14l0.001-0h2.423c0.007-0.001 0.015-0.002 0.023-0.002 0.073 0 0.133 0.055 0.141 0.126l0 0.001v5.912c-0.002 0.033-0.003 0.072-0.003 0.111 0 0.443 0.136 0.855 0.369 1.195l-0.005-0.007c0.292 0.298 0.699 0.482 1.149 0.482 0.049 0 0.098-0.002 0.146-0.006l-0.006 0c0.305-0.001 0.597-0.056 0.867-0.157l-0.017 0.006c0.301-0.105 0.561-0.244 0.795-0.418l-0.008 0.006v-7.11c0-0.087 0.062-0.137 0.175-0.137h2.387c0.006-0.001 0.014-0.002 0.022-0.002 0.059 0 0.108 0.044 0.114 0.101l0 0.001v7.698c0 0.339 0 0.639 0.014 0.9 0.012 0.264 0.026 0.489 0.038 0.689 0.025 0.2 0.036 0.312 0.049 0.449 0.015 0.112-0.035 0.164-0.135 0.164zM16.625 21.998h-2.612c-0.006 0.001-0.012 0.001-0.019 0.001-0.086 0-0.159-0.058-0.181-0.137l-0-0.001-1.025-2.987h-4.649l-0.95 2.949c-0.021 0.101-0.109 0.176-0.215 0.176-0.008 0-0.016-0-0.024-0.001l0.001 0h-2.349c-0.137 0-0.175-0.075-0.137-0.225l4.024-11.546c0.037-0.125 0.075-0.262 0.125-0.412 0.062-0.24 0.098-0.515 0.1-0.799v-0.001c-0.001-0.005-0.001-0.010-0.001-0.016 0-0.060 0.043-0.111 0.1-0.122l0.001-0h3.236c0.087 0 0.15 0.037 0.162 0.1l4.536 12.822c0.038 0.136 0 0.199-0.125 0.199zM25.684 1.38h-19.369c-0.001 0-0.003 0-0.004 0-2.931 0-5.306 2.376-5.306 5.306 0 0.002 0 0.003 0 0.005v-0 18.619c0 0.001 0 0.003 0 0.004 0 2.931 2.376 5.306 5.306 5.306 0.002 0 0.003 0 0.005 0h19.369c0.001 0 0.003 0 0.004 0 2.931 0 5.306-2.376 5.306-5.306 0-0.002 0-0.003 0-0.005v0-18.619c0-0.001 0-0.003 0-0.004 0-2.931-2.376-5.306-5.306-5.306-0.002 0-0.003 0-0.005 0h0z"></path>
</svg>