<?xml version="1.0" encoding="utf-8"?>
<!-- Uploaded to: SVG Repo, www.svgrepo.com, Generator: SVG Repo Mixer Tools -->
<svg fill="#000000" width="800px" height="800px" viewBox="0 0 32 32" version="1.1" xmlns="http://www.w3.org/2000/svg">
<title>aliexpress</title>
<path d="M23.428 14.884c0.537 0.001 0.978 0.414 1.023 0.94l0 0.004h-2.199c0.124-0.543 0.602-0.943 1.175-0.943h0zM17.442 14.865c0.011-0 0.024-0.001 0.038-0.001 0.695 0 1.259 0.564 1.259 1.259s-0.564 1.259-1.259 1.259c-0.587 0-1.079-0.401-1.219-0.944l-0.002-0.009c-0.026-0.096-0.041-0.206-0.041-0.32 0-0.378 0.163-0.717 0.423-0.952l0.001-0.001c0.209-0.181 0.483-0.291 0.783-0.291 0.006 0 0.012 0 0.017 0h-0.001zM7.154 14.403v3.424h0.612v-3.424zM11.934 14.384l1.327 1.721-1.327 1.722h0.726l0.973-1.262 0.972 1.262h0.726l-1.327-1.722 1.327-1.722h-0.726l-0.972 1.262-0.973-1.262zM23.43 14.284c-0.991 0.010-1.791 0.817-1.791 1.809 0 0.287 0.067 0.559 0.186 0.8l-0.005-0.011c0.304 0.623 0.933 1.044 1.66 1.044 0.037 0 0.074-0.001 0.11-0.003l-0.005 0c0.508-0.035 0.955-0.274 1.262-0.635l0.002-0.003-0.454-0.364c-0.223 0.264-0.555 0.431-0.925 0.431-0.165 0-0.322-0.033-0.465-0.092l0.008 0.003c-0.372-0.153-0.65-0.467-0.75-0.854l-0.002-0.009h2.798l0.002-0.534c-0.019-0.879-0.736-1.585-1.618-1.585-0.005 0-0.010 0-0.015 0h0.001zM17.427 14.284c-0 0-0 0-0 0-0.856 0-1.574 0.589-1.772 1.383l-0.003 0.013c-0.033 0.122-0.051 0.261-0.051 0.406 0 0.001 0 0.002 0 0.003v-0 3.54h0.614v-2.266c0.32 0.304 0.753 0.492 1.23 0.492 0.986 0 1.786-0.8 1.786-1.786s-0.8-1.786-1.786-1.786c-0.007 0-0.014 0-0.021 0h0.001zM29.724 14.282c-0.001 0-0.003 0-0.005 0-0.068 0-0.134 0.005-0.199 0.013l0.008-0.001c-0.378 0.023-0.711 0.201-0.939 0.469l-0.002 0.002c-0.11 0.143-0.177 0.325-0.177 0.523 0 0.021 0.001 0.041 0.002 0.061l-0-0.003c-0 0.006-0 0.012-0 0.019 0 0.243 0.113 0.459 0.29 0.6l0.002 0.001c0.233 0.159 0.51 0.272 0.809 0.322l0.012 0.002c0.255 0.026 0.487 0.109 0.688 0.236l-0.006-0.004c0.103 0.071 0.17 0.189 0.17 0.323 0 0.005-0 0.010-0 0.016l0-0.001c0.001 0.312-0.276 0.465-0.525 0.512-0.067 0.014-0.143 0.022-0.222 0.022-0.366 0-0.69-0.177-0.893-0.449l-0.002-0.003-0.464 0.36c0.332 0.383 0.819 0.625 1.362 0.625h0c0.042 0.005 0.091 0.007 0.14 0.007 0.491 0 0.919-0.269 1.144-0.668l0.003-0.007c0.050-0.126 0.079-0.272 0.079-0.425 0-0.018-0-0.035-0.001-0.053l0 0.003c0-0.002 0-0.005 0-0.008 0-0.274-0.13-0.517-0.332-0.672l-0.002-0.002c-0.227-0.149-0.495-0.255-0.783-0.301l-0.012-0.002c-0.546-0.097-0.822-0.245-0.87-0.426-0.003-0.019-0.004-0.040-0.004-0.063 0-0.224 0.16-0.41 0.373-0.451l0.003-0c0.090-0.031 0.193-0.049 0.3-0.049 0.316 0 0.596 0.155 0.769 0.392l0.002 0.003 0.459-0.309c-0.264-0.371-0.691-0.612-1.174-0.617h-0.001zM26.741 14.282c-0.001 0-0.003 0-0.005 0-0.068 0-0.135 0.005-0.201 0.013l0.008-0.001c-0.378 0.024-0.711 0.201-0.939 0.469l-0.002 0.002c-0.11 0.143-0.177 0.325-0.177 0.523 0 0.021 0.001 0.041 0.002 0.061l-0-0.003c-0 0.005-0 0.010-0 0.015 0 0.244 0.113 0.462 0.29 0.603l0.002 0.001c0.233 0.158 0.51 0.272 0.809 0.322l0.012 0.002c0.256 0.026 0.488 0.109 0.689 0.236l-0.006-0.004c0.103 0.073 0.17 0.191 0.17 0.326 0 0.004-0 0.008-0 0.012v-0.001c0 0.312-0.276 0.465-0.525 0.512-0.067 0.014-0.143 0.022-0.222 0.022-0.366 0-0.69-0.177-0.893-0.449l-0.002-0.003-0.464 0.36c0.332 0.383 0.819 0.625 1.362 0.625h0c0.042 0.005 0.091 0.007 0.14 0.007 0.49 0 0.918-0.269 1.143-0.668l0.003-0.007c0.050-0.126 0.080-0.272 0.080-0.425 0-0.018-0-0.035-0.001-0.053l0 0.002c0-0.002 0-0.005 0-0.008 0-0.274-0.13-0.517-0.332-0.672l-0.002-0.002c-0.227-0.149-0.495-0.255-0.783-0.301l-0.012-0.002c-0.546-0.097-0.822-0.245-0.871-0.426-0.003-0.019-0.004-0.040-0.004-0.062 0-0.224 0.16-0.411 0.372-0.451l0.003-0c0.090-0.031 0.193-0.049 0.3-0.049 0.316 0 0.596 0.155 0.769 0.392l0.002 0.003 0.459-0.309c-0.264-0.371-0.69-0.611-1.173-0.617h-0.001zM21.517 14.273c-0.464 0.001-0.887 0.174-1.209 0.459l0.002-0.002v-0.355h-0.614v3.453h0.612c0.003-0.596 0-1.193 0.003-1.791 0.035-0.64 0.561-1.145 1.206-1.147h0zM3.161 13.771l0.872 2.274h-1.744zM8.642 13.031v4.796h3.015v-0.627h-2.389v-1.487h1.971v-0.596h-1.971v-1.457h2.216v-0.627zM5.674 13.031v4.796h0.614v-4.796zM2.845 13.028l-1.841 4.799h0.6l0.444-1.152h2.227l0.442 1.152h0.601l-1.839-4.799zM7.46 12.371l-0.019 0.008-0.008 0.019c0 0.001 0 0.001 0 0.002 0 0.493-0.399 0.892-0.891 0.894h-0l-0.019 0.008-0.007 0.019c0 0.014 0.012 0.026 0.026 0.026v0c0.492 0.002 0.891 0.402 0.891 0.894 0 0.001 0 0.002 0 0.003v-0c0 0.015 0.012 0.026 0.027 0.026 0 0 0.001 0 0.001 0h-0c0.014-0.001 0.026-0.012 0.026-0.026v-0c0.001-0.492 0.399-0.891 0.891-0.893h0c0 0 0 0 0.001 0 0.015 0 0.027-0.012 0.027-0.027s-0.012-0.027-0.027-0.027c-0 0-0.001 0-0.001 0h0c-0.493-0.002-0.891-0.402-0.891-0.895 0-0.001 0-0.002 0-0.003v0-0.002l-0.008-0.019z"></path>
</svg>